<svg width="15" height="15" viewBox="0 0 15 15" fill="none" xmlns="http://www.w3.org/2000/svg">
<path d="M4.0625 7.5C4.65 5.3375 7.15 3.75 9.375 3.75C11.6 3.75 13.1625 5.3375 13.75 7.5C13.1625 9.66875 11.6 11.25 9.375 11.25C7.15 11.25 4.65 9.66875 4.0625 7.5M11.25 7.5V7.8125" stroke="#94A0B1" stroke-width="1.25" stroke-linecap="round" stroke-linejoin="round"/>
<path d="M10.0001 11.2063C8.32889 9.01801 8.32889 5.98199 10.0001 3.79375M4.37511 6.66875C4.37511 5 3.48761 3.73125 1.70636 3.4375C1.08136 4.375 1.08136 6.5625 1.85011 7.5C1.07511 8.4375 1.07511 10.625 1.70636 11.5625C3.48761 11.2688 4.37511 10 4.37511 8.33125" stroke="#94A0B1" stroke-width="1.25" stroke-linecap="round" stroke-linejoin="round"/>
<path d="M6.5375 4.53751C6.375 3.67501 5.73125 2.65001 5 1.87501H8.625C9.23751 1.87274 9.76144 2.31464 9.8625 2.91876L10.0062 3.79376M10.0062 11.2063L9.8625 12.0813C9.76144 12.6854 9.23751 13.1273 8.625 13.125H5.9375C6.54303 12.4384 6.87454 11.5529 6.86875 10.6375" stroke="#94A0B1" stroke-width="1.25" stroke-linecap="round" stroke-linejoin="round"/>
</svg>
