<svg width="16" height="16" viewBox="0 0 16 16" fill="none" xmlns="http://www.w3.org/2000/svg">
<path d="M1.75 4.25C2.125 4.5625 2.5 4.875 3.3125 4.875C4.875 4.875 4.875 3.625 6.4375 3.625C8.0625 3.625 7.9375 4.875 9.5625 4.875C11.125 4.875 11.125 3.625 12.6875 3.625C13.5 3.625 13.875 3.9375 14.25 4.25M1.75 8C2.125 8.3125 2.5 8.625 3.3125 8.625C4.875 8.625 4.875 7.375 6.4375 7.375C8.0625 7.375 7.9375 8.625 9.5625 8.625C11.125 8.625 11.125 7.375 12.6875 7.375C13.5 7.375 13.875 7.6875 14.25 8M1.75 11.75C2.125 12.0625 2.5 12.375 3.3125 12.375C4.875 12.375 4.875 11.125 6.4375 11.125C8.0625 11.125 7.9375 12.375 9.5625 12.375C11.125 12.375 11.125 11.125 12.6875 11.125C13.5 11.125 13.875 11.4375 14.25 11.75" stroke="#94A0B1" stroke-width="1.25" stroke-linecap="round" stroke-linejoin="round"/>
</svg>
