<svg width="15" height="15" viewBox="0 0 15 15" fill="none" xmlns="http://www.w3.org/2000/svg">
<path d="M5.625 2.5C5.625 3.18989 6.18511 3.75 6.875 3.75C7.56489 3.75 8.125 3.18989 8.125 2.5C8.125 1.81011 7.56489 1.25 6.875 1.25C6.18511 1.25 5.625 1.81011 5.625 2.5V2.5" stroke="#94A0B1" stroke-width="1.25" stroke-linecap="round" stroke-linejoin="round"/>
<path d="M10 5C10 5.68989 10.5601 6.25 11.25 6.25C11.9399 6.25 12.5 5.68989 12.5 5C12.5 4.31011 11.9399 3.75 11.25 3.75C10.5601 3.75 10 4.31011 10 5V5" stroke="#94A0B1" stroke-width="1.25" stroke-linecap="round" stroke-linejoin="round"/>
<path d="M11.25 10C11.25 10.6899 11.8101 11.25 12.5 11.25C13.1899 11.25 13.75 10.6899 13.75 10C13.75 9.31011 13.1899 8.75 12.5 8.75C11.8101 8.75 11.25 9.31011 11.25 10V10" stroke="#94A0B1" stroke-width="1.25" stroke-linecap="round" stroke-linejoin="round"/>
<path d="M5.62478 6.25C7.34952 6.25 8.74978 7.65027 8.74978 9.375V11.5625C8.74943 12.6428 7.96054 13.561 6.89265 13.7242C5.82476 13.8873 4.79767 13.2465 4.47478 12.2156C4.20812 11.3552 3.64562 10.7917 2.78728 10.525C1.75694 10.2023 1.11616 9.1761 1.27846 8.10867C1.44076 7.04125 2.35759 6.25189 3.43728 6.25L5.62478 6.25" stroke="#94A0B1" stroke-width="1.25" stroke-linecap="round" stroke-linejoin="round"/>
</svg>
