<svg width="15" height="15" viewBox="0 0 15 15" fill="none" xmlns="http://www.w3.org/2000/svg">
<path d="M2.50018 8.74993C2.25878 8.75076 2.03848 8.61248 1.93428 8.39472C1.83007 8.17696 1.8606 7.91866 2.01268 7.73118L8.20018 1.35618C8.29578 1.24584 8.45503 1.21639 8.58377 1.28525C8.7125 1.35411 8.7764 1.50292 8.73768 1.64368L7.53768 5.40618C7.46586 5.59842 7.49298 5.81366 7.61024 5.98207C7.7275 6.15049 7.91997 6.2506 8.12518 6.24993H12.5002C12.7416 6.24911 12.9619 6.38739 13.0661 6.60515C13.1703 6.82291 13.1398 7.08121 12.9877 7.26868L6.80018 13.6437C6.70459 13.754 6.54534 13.7835 6.4166 13.7146C6.28787 13.6458 6.22397 13.4969 6.26268 13.3562L7.46268 9.59368C7.53451 9.40145 7.50739 9.1862 7.39013 9.01779C7.27286 8.84938 7.0804 8.74927 6.87518 8.74993H2.50018" stroke="#94A0B1" stroke-width="1.25" stroke-linecap="round" stroke-linejoin="round"/>
</svg>
